<?xml version="1.0" encoding="iso-8859-1"?>
<!-- Generator: Adobe Illustrator 16.0.0, SVG Export Plug-In . SVG Version: 6.00 Build 0)  -->
<!DOCTYPE svg PUBLIC "-//W3C//DTD SVG 1.1//EN" "http://www.w3.org/Graphics/SVG/1.1/DTD/svg11.dtd">
<svg version="1.1" id="Layer_1" xmlns="http://www.w3.org/2000/svg" xmlns:xlink="http://www.w3.org/1999/xlink" x="0px" y="0px"
	 width="60px" height="60px" viewBox="0 0 60 60" style="enable-background:new 0 0 60 60;" xml:space="preserve">
<path d="M29.995,4.113c-18.633,0-20.799,11.714-20.799,20.8s11.713,28.045,20.799,28.045c9.087,0,20.801-18.959,20.801-28.045
	S48.628,4.113,29.995,4.113z M16.907,35.944c-6.91-5.489-5.054-9.709-5.054-9.709s4.183-2.371,10.6,2.727
	c6.417,5.099,5.055,9.711,5.055,9.711S23.818,41.434,16.907,35.944z M26.988,46c0-1,1.371-1.765,3.062-1.765
	c1.692,0,3.062,0.765,3.062,1.765H26.988z M43.355,35.944c-6.911,5.489-10.6,2.729-10.6,2.729s-1.364-4.612,5.053-9.711
	c6.418-5.097,10.599-2.727,10.599-2.727S50.263,30.455,43.355,35.944z"/>
<path style="opacity:0.5;" d="M22.453,28.962c-6.417-5.097-10.6-2.727-10.6-2.727s-1.855,4.22,5.054,9.709
	c6.911,5.489,10.601,2.729,10.601,2.729S28.87,34.061,22.453,28.962z"/>
<path style="opacity:0.5;" d="M48.407,26.235c0,0-4.181-2.371-10.599,2.727c-6.417,5.099-5.053,9.711-5.053,9.711
	s3.688,2.761,10.6-2.729C50.263,30.455,48.407,26.235,48.407,26.235z"/>
</svg>
